<svg width="48" height="48" viewBox="0 0 48 48" fill="none" xmlns="http://www.w3.org/2000/svg">
<rect width="48" height="48" rx="24" fill="white"/>
<path d="M15.7021 24.707C15.3115 25.0975 15.3115 25.7306 15.7021 26.1212L23.28 33.6991C23.3109 33.7307 23.344 33.7603 23.3789 33.7877C23.4235 33.8227 23.4705 33.8534 23.5191 33.8797C23.6582 33.9551 23.8171 33.9985 23.9861 34C24.2467 34.0037 24.5085 33.9061 24.7074 33.7072L32.2981 26.1165C32.6886 25.726 32.6886 25.0928 32.2981 24.7023C31.9075 24.3118 31.2744 24.3118 30.8838 24.7023L24.995 30.5911V15C24.995 14.4477 24.5473 14 23.995 14C23.4427 14 22.995 14.4477 22.995 15L22.995 30.5857L17.1163 24.707C16.7258 24.3164 16.0926 24.3164 15.7021 24.707Z" fill="black"/>
</svg>
