<svg width="48" height="48" viewBox="0 0 48 48" fill="none" xmlns="http://www.w3.org/2000/svg">
<path d="M12.008 19.2751L9.21173 16.9234C8.82428 16.6221 8.3285 16.4752 7.82897 16.5137C7.32944 16.5522 6.86522 16.7731 6.53423 17.1297C6.20324 17.4864 6.03136 17.9509 6.05485 18.4253C6.07834 18.8997 6.29535 19.3469 6.66012 19.6726L9.10687 21.7263H9.31659L12.008 19.2751ZM16.4471 27.7879L18.2298 29.0466C20.0687 30.3627 22.2886 31.114 24.5913 31.1996C26.901 31.1865 29.1489 30.4918 31.0228 29.2122C33.4706 27.4823 35.8052 25.6129 38.0135 23.6143L42.3827 19.9376C42.5667 19.7706 42.7131 19.5701 42.8131 19.3481C42.9131 19.1261 42.9647 18.8872 42.9647 18.6458C42.9647 18.4044 42.9131 18.1655 42.8131 17.9435C42.7131 17.7215 42.5667 17.5209 42.3827 17.354C42.2156 17.1728 42.0123 17.0248 41.7846 16.9183C41.5569 16.8119 41.3092 16.7492 41.0558 16.7338C40.8025 16.7184 40.5484 16.7506 40.3082 16.8286C40.068 16.9067 39.8464 17.0289 39.6563 17.1884L35.3221 20.8651C33.1057 22.8036 30.7715 24.6174 28.3313 26.2973C27.1309 27.2005 25.6668 27.7323 24.1369 27.821C22.7913 27.575 21.5446 26.9786 20.5367 26.0986L19.523 25.403L16.4471 27.7879Z" fill="white"/>
<path d="M32.4209 19.2751C31.7218 18.7452 31.0577 18.2483 30.4286 17.8508C28.5829 16.3961 26.258 15.5996 23.8573 15.5996C21.4566 15.5996 19.1317 16.3961 17.286 17.8508C14.7595 19.6151 12.3436 21.5174 10.0506 23.5481L5.50666 27.3573C5.30612 27.5132 5.14074 27.7058 5.0204 27.9236C4.90005 28.1414 4.82719 28.3799 4.80617 28.6249C4.78514 28.8699 4.81637 29.1164 4.898 29.3498C4.97963 29.5831 5.10999 29.7985 5.28131 29.9831C5.45263 30.1677 5.66141 30.3177 5.8952 30.4242C6.129 30.5307 6.38303 30.5916 6.64215 30.6031C6.90128 30.6146 7.1602 30.5766 7.40349 30.4913C7.64678 30.406 7.86947 30.2751 8.05827 30.1065L12.6022 26.2642C14.8264 24.2721 17.1599 22.3925 19.593 20.6332C20.8041 19.6066 22.3721 19.0391 23.9971 19.0391C25.6221 19.0391 27.1901 19.6066 28.4013 20.6332L29.5897 21.4944L32.4209 19.2751ZM39.7612 25.3036C38.8174 26.1317 37.8737 26.8936 36.9998 27.6223L40.0408 30.2059C40.4282 30.5072 40.924 30.654 41.4236 30.6155C41.9231 30.577 42.3873 30.3562 42.7183 29.9995C43.0493 29.6429 43.2212 29.1784 43.1977 28.704C43.1742 28.2296 42.9572 27.7823 42.5924 27.4567L39.7612 25.3036Z" fill="white"/>
</svg>
